<svg width="35" height="28" viewBox="0 0 35 28" fill="none" xmlns="http://www.w3.org/2000/svg">
<path d="M4.77225 2.33275C3.4545 2.33275 2.387 3.3775 2.387 4.66725V23.3328C2.387 24.6225 3.4545 25.6672 4.77225 25.6672H30.2278C31.5455 25.6672 32.613 24.6225 32.613 23.3328V4.66725C32.613 3.3775 31.5455 2.33275 30.2278 2.33275H4.77225ZM30.2278 0C32.8633 0 35 2.0895 35 4.66725V23.3328C35 25.9105 32.8633 28 30.2278 28H4.77225C2.13675 28 0 25.9105 0 23.3328V4.66725C0 2.0895 2.13675 0 4.77225 0H30.2278ZM14.2922 19.4827H7C6.84496 19.4809 6.69107 19.5096 6.54715 19.5673C6.40322 19.625 6.27208 19.7105 6.16123 19.8189C6.05038 19.9273 5.96199 20.0565 5.90112 20.1991C5.84025 20.3417 5.8081 20.495 5.8065 20.65C5.8065 21.294 6.34025 21.8172 7 21.8172H14.2922C14.4471 21.8189 14.6008 21.79 14.7446 21.7322C14.8883 21.6744 15.0192 21.5889 15.1299 21.4805C15.2406 21.3721 15.3288 21.2429 15.3895 21.1005C15.4503 20.958 15.4824 20.8049 15.484 20.65C15.4824 20.4951 15.4503 20.342 15.3895 20.1995C15.3288 20.0571 15.2406 19.9279 15.1299 19.8195C15.0192 19.7111 14.8883 19.6256 14.7446 19.5678C14.6008 19.51 14.4471 19.4811 14.2922 19.4827ZM24.0625 5.83275C21.3955 5.83275 19.2237 7.917 19.2237 10.5C19.2237 11.8528 19.8188 13.069 20.7708 13.9212C18.9683 14.9852 17.766 16.9015 17.766 19.0908C17.766 19.7155 17.864 20.3298 18.0548 20.916C18.256 21.5285 18.928 21.868 19.5545 21.672C19.7024 21.6277 19.8399 21.5544 19.9591 21.4564C20.0783 21.3583 20.1768 21.2375 20.2488 21.101C20.3208 20.9645 20.3649 20.815 20.3785 20.6612C20.3921 20.5075 20.3749 20.3525 20.328 20.2055C20.211 19.8455 20.152 19.4693 20.153 19.0908C20.153 17.0345 21.8977 15.358 24.0625 15.358C26.2273 15.358 27.9737 17.0345 27.9737 19.0908C27.9737 19.3935 27.937 19.6892 27.8635 19.9762C27.8266 20.1262 27.8199 20.2821 27.8438 20.4347C27.8676 20.5873 27.9216 20.7336 28.0025 20.8652C28.0835 20.9968 28.1897 21.111 28.3152 21.2011C28.4406 21.2912 28.5827 21.3555 28.7333 21.3902C29.0376 21.4666 29.3598 21.4202 29.6302 21.2611C29.9007 21.102 30.0977 20.8429 30.1788 20.5398C30.2995 20.0673 30.359 19.5825 30.359 19.0908C30.359 16.9015 29.1567 14.9853 27.3542 13.9178C28.3062 13.069 28.9012 11.8528 28.9012 10.5C28.9012 7.917 26.7313 5.83275 24.0625 5.83275ZM14.2922 13.3578H7C6.84496 13.3559 6.69107 13.3846 6.54715 13.4423C6.40322 13.5 6.27208 13.5855 6.16123 13.6939C6.05038 13.8023 5.96199 13.9315 5.90112 14.0741C5.84025 14.2167 5.8081 14.37 5.8065 14.525C5.8065 15.169 6.34025 15.6923 7 15.6923H14.2922C14.4471 15.6939 14.6008 15.665 14.7446 15.6072C14.8883 15.5494 15.0192 15.4639 15.1299 15.3555C15.2406 15.2471 15.3288 15.1179 15.3895 14.9755C15.4503 14.833 15.4824 14.6799 15.484 14.525C15.4824 14.3701 15.4503 14.217 15.3895 14.0745C15.3288 13.9321 15.2406 13.8029 15.1299 13.6945C15.0192 13.5861 14.8883 13.5006 14.7446 13.4428C14.6008 13.385 14.4471 13.3561 14.2922 13.3578ZM24.0625 8.16725C25.4223 8.16725 26.516 9.21725 26.516 10.5C26.516 11.7845 25.4223 12.8328 24.0625 12.8328C22.7027 12.8328 21.609 11.7828 21.609 10.5C21.609 9.2155 22.7027 8.16725 24.0625 8.16725ZM14.2922 7.23275H7C6.84496 7.2309 6.69107 7.25964 6.54715 7.31732C6.40322 7.375 6.27208 7.4605 6.16123 7.56891C6.05038 7.67733 5.96199 7.80653 5.90112 7.94914C5.84025 8.09175 5.8081 8.24496 5.8065 8.4C5.8065 9.044 6.34025 9.56725 7 9.56725H14.2922C14.4471 9.56887 14.6008 9.53996 14.7446 9.48217C14.8883 9.42438 15.0192 9.33885 15.1299 9.23046C15.2406 9.12207 15.3288 8.99294 15.3895 8.85045C15.4503 8.70796 15.4824 8.5549 15.484 8.4C15.4824 8.2451 15.4503 8.09204 15.3895 7.94955C15.3288 7.80706 15.2406 7.67793 15.1299 7.56954C15.0192 7.46115 14.8883 7.37562 14.7446 7.31783C14.6008 7.26004 14.4471 7.23113 14.2922 7.23275Z" fill="#00017B"/>
</svg>
